<svg width="533" height="372" viewBox="0 0 533 372" fill="none" xmlns="http://www.w3.org/2000/svg">
<rect x="43.5" y="45.5" width="91" height="44" stroke="#888888"/>
<path d="M60.88 75.24C59.9333 75.24 59.1867 75.0733 58.64 74.74C58.0933 74.3933 57.7 73.92 57.46 73.32C57.2333 72.72 57.12 72.02 57.12 71.22V66.62H54.38V65.38L57.18 65.28L57.4 62.16H58.76V65.28H63.54V66.62H58.76V71.24C58.76 71.8133 58.8333 72.3 58.98 72.7C59.1267 73.1 59.38 73.4 59.74 73.6C60.1 73.8 60.5933 73.9 61.22 73.9C61.6867 73.9 62.1067 73.86 62.48 73.78C62.8533 73.7 63.2133 73.5933 63.56 73.46L63.92 74.66C63.48 74.82 63.0133 74.9533 62.52 75.06C62.04 75.18 61.4933 75.24 60.88 75.24ZM70.9122 79.48C69.9655 79.48 69.1589 79.3733 68.4922 79.16C67.8255 78.9467 67.3122 78.64 66.9522 78.24C66.6055 77.84 66.4322 77.3533 66.4322 76.78C66.4322 76.3933 66.5655 76.0067 66.8322 75.62C67.1122 75.2467 67.5122 74.9133 68.0322 74.62V74.54C67.7789 74.3933 67.5455 74.1933 67.3322 73.94C67.1322 73.6867 67.0322 73.3533 67.0322 72.94C67.0322 72.6333 67.1322 72.32 67.3322 72C67.5322 71.6667 67.8189 71.3733 68.1922 71.12V71.04C67.8589 70.7867 67.5722 70.4467 67.3322 70.02C67.1055 69.5933 66.9922 69.0933 66.9922 68.52C66.9922 67.8133 67.1655 67.2 67.5122 66.68C67.8722 66.16 68.3389 65.76 68.9122 65.48C69.4989 65.1867 70.1322 65.04 70.8122 65.04C71.3589 65.04 71.8389 65.12 72.2522 65.28H76.2722V66.62H73.7522C73.9789 66.8467 74.1722 67.1333 74.3322 67.48C74.4922 67.8267 74.5722 68.1933 74.5722 68.58C74.5722 69.2733 74.4055 69.8733 74.0722 70.38C73.7389 70.8733 73.2855 71.2533 72.7122 71.52C72.1522 71.7867 71.5189 71.92 70.8122 71.92C70.5589 71.92 70.2855 71.8933 69.9922 71.84C69.7122 71.7733 69.4389 71.68 69.1722 71.56C68.9322 71.7067 68.7455 71.8733 68.6122 72.06C68.4789 72.2467 68.4122 72.4533 68.4122 72.68C68.4122 73.0533 68.5855 73.3333 68.9322 73.52C69.2922 73.7067 69.7922 73.8 70.4322 73.8H72.6122C73.8655 73.8 74.7922 73.9733 75.3922 74.32C76.0055 74.6667 76.3122 75.2533 76.3122 76.08C76.3122 76.68 76.0922 77.24 75.6522 77.76C75.2122 78.28 74.5855 78.6933 73.7722 79C72.9722 79.32 72.0189 79.48 70.9122 79.48ZM70.8122 70.82C71.2255 70.82 71.5989 70.7267 71.9322 70.54C72.2789 70.3533 72.5522 70.0867 72.7522 69.74C72.9522 69.3933 73.0522 68.9867 73.0522 68.52C73.0522 68.0667 72.9522 67.6733 72.7522 67.34C72.5522 66.9933 72.2789 66.7267 71.9322 66.54C71.5989 66.34 71.2255 66.24 70.8122 66.24C70.4122 66.24 70.0389 66.34 69.6922 66.54C69.3589 66.7267 69.0855 66.9933 68.8722 67.34C68.6722 67.6733 68.5722 68.0667 68.5722 68.52C68.5722 68.9867 68.6722 69.3933 68.8722 69.74C69.0855 70.0867 69.3589 70.3533 69.6922 70.54C70.0389 70.7267 70.4122 70.82 70.8122 70.82ZM71.0322 78.28C71.7922 78.28 72.4455 78.1867 72.9922 78C73.5389 77.8133 73.9589 77.5733 74.2522 77.28C74.5455 76.9867 74.6922 76.6733 74.6922 76.34C74.6922 75.8733 74.5055 75.56 74.1322 75.4C73.7722 75.24 73.2189 75.16 72.4722 75.16H70.5722C70.2922 75.16 70.0255 75.1467 69.7722 75.12C69.5322 75.0933 69.3055 75.0533 69.0922 75C68.6389 75.2533 68.3189 75.5133 68.1322 75.78C67.9455 76.06 67.8522 76.34 67.8522 76.62C67.8522 77.1267 68.1189 77.5267 68.6522 77.82C69.1989 78.1267 69.9922 78.28 71.0322 78.28ZM95.3766 75.24C94.8966 75.24 94.3832 75.1267 93.8366 74.9C93.3032 74.66 92.8099 74.3333 92.3566 73.92H92.2966L92.1566 75H90.8366V60.76H92.4766V64.64L92.4166 66.52H92.4766C92.9166 66.0667 93.4232 65.7067 93.9966 65.44C94.5832 65.1733 95.1632 65.04 95.7366 65.04C96.6166 65.04 97.3566 65.2467 97.9566 65.66C98.5566 66.06 99.0099 66.6333 99.3166 67.38C99.6232 68.1133 99.7766 68.98 99.7766 69.98C99.7766 71.0867 99.5699 72.0333 99.1566 72.82C98.7566 73.6067 98.2232 74.2067 97.5566 74.62C96.8899 75.0333 96.1632 75.24 95.3766 75.24ZM95.1166 73.86C95.6766 73.86 96.1766 73.7067 96.6166 73.4C97.0699 73.0933 97.4232 72.6533 97.6766 72.08C97.9432 71.4933 98.0766 70.8 98.0766 70C98.0766 69.2933 97.9832 68.6733 97.7966 68.14C97.6099 67.5933 97.3166 67.1733 96.9166 66.88C96.5166 66.5733 95.9899 66.42 95.3366 66.42C94.8966 66.42 94.4299 66.54 93.9366 66.78C93.4566 67.0067 92.9699 67.3733 92.4766 67.88V72.72C92.9432 73.1333 93.4099 73.4267 93.8766 73.6C94.3566 73.7733 94.7699 73.86 95.1166 73.86ZM106.969 75.24C106.115 75.24 105.322 75.04 104.589 74.64C103.869 74.24 103.282 73.66 102.829 72.9C102.389 72.14 102.169 71.2267 102.169 70.16C102.169 69.0667 102.389 68.14 102.829 67.38C103.282 66.62 103.869 66.04 104.589 65.64C105.322 65.24 106.115 65.04 106.969 65.04C107.822 65.04 108.609 65.24 109.329 65.64C110.062 66.04 110.649 66.62 111.089 67.38C111.542 68.14 111.769 69.0667 111.769 70.16C111.769 71.2267 111.542 72.14 111.089 72.9C110.649 73.66 110.062 74.24 109.329 74.64C108.609 75.04 107.822 75.24 106.969 75.24ZM106.969 73.88C107.595 73.88 108.142 73.7267 108.609 73.42C109.075 73.1 109.435 72.66 109.689 72.1C109.942 71.54 110.069 70.8933 110.069 70.16C110.069 69.4133 109.942 68.76 109.689 68.2C109.435 67.6267 109.075 67.1867 108.609 66.88C108.142 66.56 107.595 66.4 106.969 66.4C106.342 66.4 105.795 66.56 105.329 66.88C104.875 67.1867 104.515 67.6267 104.249 68.2C103.995 68.76 103.869 69.4133 103.869 70.16C103.869 70.8933 103.995 71.54 104.249 72.1C104.515 72.66 104.875 73.1 105.329 73.42C105.795 73.7267 106.342 73.88 106.969 73.88ZM120.841 75.24C119.894 75.24 119.148 75.0733 118.601 74.74C118.054 74.3933 117.661 73.92 117.421 73.32C117.194 72.72 117.081 72.02 117.081 71.22V66.62H114.341V65.38L117.141 65.28L117.361 62.16H118.721V65.28H123.501V66.62H118.721V71.24C118.721 71.8133 118.794 72.3 118.941 72.7C119.088 73.1 119.341 73.4 119.701 73.6C120.061 73.8 120.554 73.9 121.181 73.9C121.648 73.9 122.068 73.86 122.441 73.78C122.814 73.7 123.174 73.5933 123.521 73.46L123.881 74.66C123.441 74.82 122.974 74.9533 122.481 75.06C122.001 75.18 121.454 75.24 120.841 75.24Z" fill="white"/>
<rect x="300.5" y="0.5" width="55" height="44" stroke="#888888"/>
<path d="M314.92 30.24C314.32 30.24 313.767 30.1333 313.26 29.92C312.753 29.6933 312.353 29.3733 312.06 28.96C311.767 28.5467 311.62 28.0533 311.62 27.48C311.62 26.3867 312.167 25.56 313.26 25C314.353 24.4267 316.153 24.04 318.66 23.84C318.647 23.4 318.553 22.9933 318.38 22.62C318.22 22.2467 317.953 21.9533 317.58 21.74C317.207 21.5133 316.707 21.4 316.08 21.4C315.667 21.4 315.253 21.46 314.84 21.58C314.44 21.6867 314.053 21.8333 313.68 22.02C313.32 22.1933 312.987 22.3733 312.68 22.56L312.04 21.44C312.36 21.2267 312.747 21.0133 313.2 20.8C313.667 20.5733 314.167 20.3933 314.7 20.26C315.233 20.1133 315.787 20.04 316.36 20.04C317.253 20.04 317.987 20.2067 318.56 20.54C319.147 20.8733 319.58 21.34 319.86 21.94C320.153 22.5267 320.3 23.2267 320.3 24.04V30H318.96L318.82 28.68H318.76C318.227 29.1067 317.627 29.4733 316.96 29.78C316.293 30.0867 315.613 30.24 314.92 30.24ZM315.36 28.92C315.92 28.92 316.473 28.7933 317.02 28.54C317.567 28.2867 318.113 27.9333 318.66 27.48V24.92C317.273 25.04 316.18 25.2067 315.38 25.42C314.593 25.6333 314.033 25.9067 313.7 26.24C313.38 26.56 313.22 26.9333 313.22 27.36C313.22 27.72 313.32 28.02 313.52 28.26C313.72 28.4867 313.98 28.6533 314.3 28.76C314.633 28.8667 314.987 28.92 315.36 28.92ZM323.852 34.1V20.28H325.212L325.352 21.52H325.412C325.866 21.0933 326.386 20.74 326.972 20.46C327.572 20.18 328.172 20.04 328.772 20.04C329.652 20.04 330.386 20.2467 330.972 20.66C331.572 21.06 332.026 21.6333 332.332 22.38C332.639 23.1133 332.792 23.9867 332.792 25C332.792 26.0933 332.586 27.0333 332.172 27.82C331.759 28.6067 331.219 29.2067 330.552 29.62C329.886 30.0333 329.159 30.24 328.372 30.24C327.932 30.24 327.446 30.1333 326.912 29.92C326.392 29.6933 325.912 29.38 325.472 28.98H325.412L325.492 30.82V34.1H323.852ZM328.092 28.86C328.666 28.86 329.179 28.7067 329.632 28.4C330.086 28.0933 330.439 27.6533 330.692 27.08C330.959 26.4933 331.092 25.8 331.092 25C331.092 24.2933 330.999 23.6733 330.812 23.14C330.626 22.5933 330.332 22.1733 329.932 21.88C329.532 21.5733 329.006 21.42 328.352 21.42C327.912 21.42 327.446 21.54 326.952 21.78C326.472 22.0067 325.986 22.3733 325.492 22.88V27.72C325.959 28.1333 326.426 28.4267 326.892 28.6C327.372 28.7733 327.772 28.86 328.092 28.86ZM335.844 34.1V20.28H337.204L337.344 21.52H337.404C337.858 21.0933 338.378 20.74 338.964 20.46C339.564 20.18 340.164 20.04 340.764 20.04C341.644 20.04 342.378 20.2467 342.964 20.66C343.564 21.06 344.018 21.6333 344.324 22.38C344.631 23.1133 344.784 23.9867 344.784 25C344.784 26.0933 344.578 27.0333 344.164 27.82C343.751 28.6067 343.211 29.2067 342.544 29.62C341.878 30.0333 341.151 30.24 340.364 30.24C339.924 30.24 339.438 30.1333 338.904 29.92C338.384 29.6933 337.904 29.38 337.464 28.98H337.404L337.484 30.82V34.1H335.844ZM340.084 28.86C340.658 28.86 341.171 28.7067 341.624 28.4C342.078 28.0933 342.431 27.6533 342.684 27.08C342.951 26.4933 343.084 25.8 343.084 25C343.084 24.2933 342.991 23.6733 342.804 23.14C342.618 22.5933 342.324 22.1733 341.924 21.88C341.524 21.5733 340.998 21.42 340.344 21.42C339.904 21.42 339.438 21.54 338.944 21.78C338.464 22.0067 337.978 22.3733 337.484 22.88V27.72C337.951 28.1333 338.418 28.4267 338.884 28.6C339.364 28.7733 339.764 28.86 340.084 28.86Z" fill="white"/>
<rect x="417.5" y="161.5" width="115" height="44" stroke="#888888"/>
<path d="M432.92 195.48C431.973 195.48 431.167 195.373 430.5 195.16C429.833 194.947 429.32 194.64 428.96 194.24C428.613 193.84 428.44 193.353 428.44 192.78C428.44 192.393 428.573 192.007 428.84 191.62C429.12 191.247 429.52 190.913 430.04 190.62V190.54C429.787 190.393 429.553 190.193 429.34 189.94C429.14 189.687 429.04 189.353 429.04 188.94C429.04 188.633 429.14 188.32 429.34 188C429.54 187.667 429.827 187.373 430.2 187.12V187.04C429.867 186.787 429.58 186.447 429.34 186.02C429.113 185.593 429 185.093 429 184.52C429 183.813 429.173 183.2 429.52 182.68C429.88 182.16 430.347 181.76 430.92 181.48C431.507 181.187 432.14 181.04 432.82 181.04C433.367 181.04 433.847 181.12 434.26 181.28H438.28V182.62H435.76C435.987 182.847 436.18 183.133 436.34 183.48C436.5 183.827 436.58 184.193 436.58 184.58C436.58 185.273 436.413 185.873 436.08 186.38C435.747 186.873 435.293 187.253 434.72 187.52C434.16 187.787 433.527 187.92 432.82 187.92C432.567 187.92 432.293 187.893 432 187.84C431.72 187.773 431.447 187.68 431.18 187.56C430.94 187.707 430.753 187.873 430.62 188.06C430.487 188.247 430.42 188.453 430.42 188.68C430.42 189.053 430.593 189.333 430.94 189.52C431.3 189.707 431.8 189.8 432.44 189.8H434.62C435.873 189.8 436.8 189.973 437.4 190.32C438.013 190.667 438.32 191.253 438.32 192.08C438.32 192.68 438.1 193.24 437.66 193.76C437.22 194.28 436.593 194.693 435.78 195C434.98 195.32 434.027 195.48 432.92 195.48ZM432.82 186.82C433.233 186.82 433.607 186.727 433.94 186.54C434.287 186.353 434.56 186.087 434.76 185.74C434.96 185.393 435.06 184.987 435.06 184.52C435.06 184.067 434.96 183.673 434.76 183.34C434.56 182.993 434.287 182.727 433.94 182.54C433.607 182.34 433.233 182.24 432.82 182.24C432.42 182.24 432.047 182.34 431.7 182.54C431.367 182.727 431.093 182.993 430.88 183.34C430.68 183.673 430.58 184.067 430.58 184.52C430.58 184.987 430.68 185.393 430.88 185.74C431.093 186.087 431.367 186.353 431.7 186.54C432.047 186.727 432.42 186.82 432.82 186.82ZM433.04 194.28C433.8 194.28 434.453 194.187 435 194C435.547 193.813 435.967 193.573 436.26 193.28C436.553 192.987 436.7 192.673 436.7 192.34C436.7 191.873 436.513 191.56 436.14 191.4C435.78 191.24 435.227 191.16 434.48 191.16H432.58C432.3 191.16 432.033 191.147 431.78 191.12C431.54 191.093 431.313 191.053 431.1 191C430.647 191.253 430.327 191.513 430.14 191.78C429.953 192.06 429.86 192.34 429.86 192.62C429.86 193.127 430.127 193.527 430.66 193.82C431.207 194.127 432 194.28 433.04 194.28ZM440.992 191V177.88H445.072C445.966 177.88 446.752 178 447.432 178.24C448.126 178.467 448.666 178.853 449.052 179.4C449.452 179.933 449.652 180.653 449.652 181.56C449.652 182.44 449.452 183.167 449.052 183.74C448.666 184.313 448.126 184.747 447.432 185.04C446.752 185.32 445.966 185.46 445.072 185.46H442.652V191H440.992ZM442.652 184.1H444.832C445.859 184.1 446.639 183.893 447.172 183.48C447.719 183.053 447.992 182.413 447.992 181.56C447.992 180.707 447.719 180.107 447.172 179.76C446.639 179.4 445.859 179.22 444.832 179.22H442.652V184.1ZM444.732 185L446.052 184.12L450.052 191H448.152L444.732 185ZM453.024 191V177.88H456.984C457.958 177.88 458.804 178.007 459.524 178.26C460.258 178.5 460.824 178.9 461.224 179.46C461.638 180.02 461.844 180.78 461.844 181.74C461.844 182.66 461.638 183.42 461.224 184.02C460.824 184.607 460.258 185.053 459.524 185.36C458.791 185.653 457.944 185.8 456.984 185.8H454.684V191H453.024ZM454.684 184.44H456.784C457.931 184.44 458.778 184.22 459.324 183.78C459.884 183.34 460.164 182.66 460.164 181.74C460.164 180.793 459.884 180.14 459.324 179.78C458.764 179.407 457.918 179.22 456.784 179.22H454.684V184.44ZM469.997 191.24C469.183 191.24 468.43 191.087 467.737 190.78C467.043 190.473 466.437 190.033 465.917 189.46C465.397 188.873 464.99 188.16 464.697 187.32C464.417 186.467 464.277 185.507 464.277 184.44C464.277 183.04 464.53 181.833 465.037 180.82C465.543 179.793 466.237 179.007 467.117 178.46C467.997 177.913 469.01 177.64 470.157 177.64C470.943 177.64 471.643 177.807 472.257 178.14C472.87 178.46 473.363 178.827 473.737 179.24L472.797 180.3C472.463 179.927 472.077 179.633 471.637 179.42C471.197 179.207 470.703 179.1 470.157 179.1C469.317 179.1 468.583 179.32 467.957 179.76C467.343 180.187 466.863 180.793 466.517 181.58C466.17 182.367 465.997 183.307 465.997 184.4C465.997 185.507 466.17 186.46 466.517 187.26C466.863 188.06 467.343 188.68 467.957 189.12C468.583 189.56 469.317 189.78 470.157 189.78C470.757 189.78 471.297 189.653 471.777 189.4C472.257 189.147 472.703 188.787 473.117 188.32L474.057 189.34C473.55 189.94 472.963 190.407 472.297 190.74C471.63 191.073 470.863 191.24 469.997 191.24ZM491.881 191.24C491.281 191.24 490.728 191.133 490.221 190.92C489.714 190.693 489.314 190.373 489.021 189.96C488.728 189.547 488.581 189.053 488.581 188.48C488.581 187.387 489.128 186.56 490.221 186C491.314 185.427 493.114 185.04 495.621 184.84C495.608 184.4 495.514 183.993 495.341 183.62C495.181 183.247 494.914 182.953 494.541 182.74C494.168 182.513 493.668 182.4 493.041 182.4C492.628 182.4 492.214 182.46 491.801 182.58C491.401 182.687 491.014 182.833 490.641 183.02C490.281 183.193 489.948 183.373 489.641 183.56L489.001 182.44C489.321 182.227 489.708 182.013 490.161 181.8C490.628 181.573 491.128 181.393 491.661 181.26C492.194 181.113 492.748 181.04 493.321 181.04C494.214 181.04 494.948 181.207 495.521 181.54C496.108 181.873 496.541 182.34 496.821 182.94C497.114 183.527 497.261 184.227 497.261 185.04V191H495.921L495.781 189.68H495.721C495.188 190.107 494.588 190.473 493.921 190.78C493.254 191.087 492.574 191.24 491.881 191.24ZM492.321 189.92C492.881 189.92 493.434 189.793 493.981 189.54C494.528 189.287 495.074 188.933 495.621 188.48V185.92C494.234 186.04 493.141 186.207 492.341 186.42C491.554 186.633 490.994 186.907 490.661 187.24C490.341 187.56 490.181 187.933 490.181 188.36C490.181 188.72 490.281 189.02 490.481 189.26C490.681 189.487 490.941 189.653 491.261 189.76C491.594 189.867 491.948 189.92 492.321 189.92ZM500.813 195.1V181.28H502.173L502.313 182.52H502.373C502.826 182.093 503.346 181.74 503.933 181.46C504.533 181.18 505.133 181.04 505.733 181.04C506.613 181.04 507.346 181.247 507.933 181.66C508.533 182.06 508.986 182.633 509.293 183.38C509.6 184.113 509.753 184.987 509.753 186C509.753 187.093 509.546 188.033 509.133 188.82C508.72 189.607 508.18 190.207 507.513 190.62C506.846 191.033 506.12 191.24 505.333 191.24C504.893 191.24 504.406 191.133 503.873 190.92C503.353 190.693 502.873 190.38 502.433 189.98H502.373L502.453 191.82V195.1H500.813ZM505.053 189.86C505.626 189.86 506.14 189.707 506.593 189.4C507.046 189.093 507.4 188.653 507.653 188.08C507.92 187.493 508.053 186.8 508.053 186C508.053 185.293 507.96 184.673 507.773 184.14C507.586 183.593 507.293 183.173 506.893 182.88C506.493 182.573 505.966 182.42 505.313 182.42C504.873 182.42 504.406 182.54 503.913 182.78C503.433 183.007 502.946 183.373 502.453 183.88V188.72C502.92 189.133 503.386 189.427 503.853 189.6C504.333 189.773 504.733 189.86 505.053 189.86ZM517.265 191V182.62H512.745V181.28H518.905V191H517.265ZM517.905 179.24C517.532 179.24 517.219 179.127 516.965 178.9C516.712 178.66 516.585 178.347 516.585 177.96C516.585 177.573 516.712 177.267 516.965 177.04C517.219 176.8 517.532 176.68 517.905 176.68C518.279 176.68 518.592 176.8 518.845 177.04C519.099 177.267 519.225 177.573 519.225 177.96C519.225 178.347 519.099 178.66 518.845 178.9C518.592 179.127 518.279 179.24 517.905 179.24Z" fill="white"/>
<rect x="0.5" y="238.5" width="115" height="44" stroke="#888888"/>
<path d="M11.86 268V253.76H13.5V257.64L13.4 259.94H13.46C13.9533 259.407 14.4933 258.96 15.08 258.6C15.6667 258.227 16.34 258.04 17.1 258.04C18.2467 258.04 19.0933 258.373 19.64 259.04C20.1867 259.707 20.46 260.68 20.46 261.96V268H18.82V262.18C18.82 261.26 18.6467 260.58 18.3 260.14C17.9533 259.687 17.38 259.46 16.58 259.46C16.0067 259.46 15.4933 259.607 15.04 259.9C14.5867 260.193 14.0733 260.633 13.5 261.22V268H11.86ZM29.8722 268.24C28.9255 268.24 28.1789 268.073 27.6322 267.74C27.0855 267.393 26.6922 266.92 26.4522 266.32C26.2255 265.72 26.1122 265.02 26.1122 264.22V259.62H23.3722V258.38L26.1722 258.28L26.3922 255.16H27.7522V258.28H32.5322V259.62H27.7522V264.24C27.7522 264.813 27.8255 265.3 27.9722 265.7C28.1189 266.1 28.3722 266.4 28.7322 266.6C29.0922 266.8 29.5855 266.9 30.2122 266.9C30.6789 266.9 31.0989 266.86 31.4722 266.78C31.8455 266.7 32.2055 266.593 32.5522 266.46L32.9122 267.66C32.4722 267.82 32.0055 267.953 31.5122 268.06C31.0322 268.18 30.4855 268.24 29.8722 268.24ZM41.8644 268.24C40.9177 268.24 40.171 268.073 39.6244 267.74C39.0777 267.393 38.6844 266.92 38.4444 266.32C38.2177 265.72 38.1044 265.02 38.1044 264.22V259.62H35.3644V258.38L38.1644 258.28L38.3844 255.16H39.7444V258.28H44.5244V259.62H39.7444V264.24C39.7444 264.813 39.8177 265.3 39.9644 265.7C40.111 266.1 40.3644 266.4 40.7244 266.6C41.0844 266.8 41.5777 266.9 42.2044 266.9C42.671 266.9 43.091 266.86 43.4644 266.78C43.8377 266.7 44.1977 266.593 44.5444 266.46L44.9044 267.66C44.4644 267.82 43.9977 267.953 43.5044 268.06C43.0244 268.18 42.4777 268.24 41.8644 268.24ZM47.8366 272.1V258.28H49.1966L49.3366 259.52H49.3966C49.8499 259.093 50.3699 258.74 50.9566 258.46C51.5566 258.18 52.1566 258.04 52.7566 258.04C53.6366 258.04 54.3699 258.247 54.9566 258.66C55.5566 259.06 56.0099 259.633 56.3166 260.38C56.6232 261.113 56.7766 261.987 56.7766 263C56.7766 264.093 56.5699 265.033 56.1566 265.82C55.7432 266.607 55.2032 267.207 54.5366 267.62C53.8699 268.033 53.1432 268.24 52.3566 268.24C51.9166 268.24 51.4299 268.133 50.8966 267.92C50.3766 267.693 49.8966 267.38 49.4566 266.98H49.3966L49.4766 268.82V272.1H47.8366ZM52.0766 266.86C52.6499 266.86 53.1632 266.707 53.6166 266.4C54.0699 266.093 54.4232 265.653 54.6766 265.08C54.9432 264.493 55.0766 263.8 55.0766 263C55.0766 262.293 54.9832 261.673 54.7966 261.14C54.6099 260.593 54.3166 260.173 53.9166 259.88C53.5166 259.573 52.9899 259.42 52.3366 259.42C51.8966 259.42 51.4299 259.54 50.9366 259.78C50.4566 260.007 49.9699 260.373 49.4766 260.88V265.72C49.9432 266.133 50.4099 266.427 50.8766 266.6C51.3566 266.773 51.7566 266.86 52.0766 266.86ZM74.8809 268.24C74.2809 268.24 73.7276 268.133 73.2209 267.92C72.7143 267.693 72.3143 267.373 72.0209 266.96C71.7276 266.547 71.5809 266.053 71.5809 265.48C71.5809 264.387 72.1276 263.56 73.2209 263C74.3143 262.427 76.1143 262.04 78.6209 261.84C78.6076 261.4 78.5143 260.993 78.3409 260.62C78.1809 260.247 77.9143 259.953 77.5409 259.74C77.1676 259.513 76.6676 259.4 76.0409 259.4C75.6276 259.4 75.2143 259.46 74.8009 259.58C74.4009 259.687 74.0143 259.833 73.6409 260.02C73.2809 260.193 72.9476 260.373 72.6409 260.56L72.0009 259.44C72.3209 259.227 72.7076 259.013 73.1609 258.8C73.6276 258.573 74.1276 258.393 74.6609 258.26C75.1943 258.113 75.7476 258.04 76.3209 258.04C77.2143 258.04 77.9476 258.207 78.5209 258.54C79.1076 258.873 79.5409 259.34 79.8209 259.94C80.1143 260.527 80.2609 261.227 80.2609 262.04V268H78.9209L78.7809 266.68H78.7209C78.1876 267.107 77.5876 267.473 76.9209 267.78C76.2543 268.087 75.5743 268.24 74.8809 268.24ZM75.3209 266.92C75.8809 266.92 76.4343 266.793 76.9809 266.54C77.5276 266.287 78.0743 265.933 78.6209 265.48V262.92C77.2343 263.04 76.1409 263.207 75.3409 263.42C74.5543 263.633 73.9943 263.907 73.6609 264.24C73.3409 264.56 73.1809 264.933 73.1809 265.36C73.1809 265.72 73.2809 266.02 73.4809 266.26C73.6809 266.487 73.9409 266.653 74.2609 266.76C74.5943 266.867 74.9476 266.92 75.3209 266.92ZM83.8131 272.1V258.28H85.1731L85.3131 259.52H85.3731C85.8265 259.093 86.3465 258.74 86.9331 258.46C87.5331 258.18 88.1331 258.04 88.7331 258.04C89.6131 258.04 90.3465 258.247 90.9331 258.66C91.5331 259.06 91.9865 259.633 92.2931 260.38C92.5998 261.113 92.7531 261.987 92.7531 263C92.7531 264.093 92.5465 265.033 92.1331 265.82C91.7198 266.607 91.1798 267.207 90.5131 267.62C89.8465 268.033 89.1198 268.24 88.3331 268.24C87.8931 268.24 87.4065 268.133 86.8731 267.92C86.3531 267.693 85.8731 267.38 85.4331 266.98H85.3731L85.4531 268.82V272.1H83.8131ZM88.0531 266.86C88.6265 266.86 89.1398 266.707 89.5931 266.4C90.0465 266.093 90.3998 265.653 90.6531 265.08C90.9198 264.493 91.0531 263.8 91.0531 263C91.0531 262.293 90.9598 261.673 90.7731 261.14C90.5865 260.593 90.2931 260.173 89.8931 259.88C89.4931 259.573 88.9665 259.42 88.3131 259.42C87.8731 259.42 87.4065 259.54 86.9131 259.78C86.4331 260.007 85.9465 260.373 85.4531 260.88V265.72C85.9198 266.133 86.3865 266.427 86.8531 266.6C87.3331 266.773 87.7331 266.86 88.0531 266.86ZM100.265 268V259.62H95.7453V258.28H101.905V268H100.265ZM100.905 256.24C100.532 256.24 100.219 256.127 99.9653 255.9C99.712 255.66 99.5853 255.347 99.5853 254.96C99.5853 254.573 99.712 254.267 99.9653 254.04C100.219 253.8 100.532 253.68 100.905 253.68C101.279 253.68 101.592 253.8 101.845 254.04C102.099 254.267 102.225 254.573 102.225 254.96C102.225 255.347 102.099 255.66 101.845 255.9C101.592 256.127 101.279 256.24 100.905 256.24Z" fill="white"/>
<rect x="232.5" y="319.5" width="55" height="44" stroke="#888888"/>
<path d="M248.92 349.24C247.907 349.24 246.993 349.04 246.18 348.64C245.38 348.24 244.747 347.66 244.28 346.9C243.827 346.14 243.6 345.227 243.6 344.16C243.6 343.067 243.847 342.14 244.34 341.38C244.833 340.62 245.487 340.04 246.3 339.64C247.127 339.24 248.033 339.04 249.02 339.04C249.82 339.04 250.507 339.18 251.08 339.46C251.667 339.74 252.16 340.073 252.56 340.46L251.74 341.52C251.34 341.173 250.927 340.9 250.5 340.7C250.073 340.5 249.6 340.4 249.08 340.4C248.333 340.4 247.673 340.56 247.1 340.88C246.527 341.187 246.08 341.627 245.76 342.2C245.453 342.76 245.3 343.413 245.3 344.16C245.3 344.893 245.453 345.54 245.76 346.1C246.067 346.66 246.5 347.1 247.06 347.42C247.633 347.727 248.293 347.88 249.04 347.88C249.64 347.88 250.187 347.76 250.68 347.52C251.187 347.28 251.64 346.993 252.04 346.66L252.78 347.72C252.247 348.2 251.647 348.573 250.98 348.84C250.327 349.107 249.64 349.24 248.92 349.24ZM262.112 349.24C261.086 349.24 260.299 348.947 259.752 348.36C259.206 347.76 258.932 346.887 258.932 345.74V336.1H255.612V334.76H260.572V345.86C260.572 346.567 260.746 347.08 261.092 347.4C261.439 347.72 261.899 347.88 262.472 347.88C262.752 347.88 263.039 347.847 263.332 347.78C263.626 347.7 263.952 347.58 264.312 347.42L264.732 348.66C264.292 348.82 263.879 348.953 263.492 349.06C263.106 349.18 262.646 349.24 262.112 349.24ZM272.304 349V340.62H267.784V339.28H273.944V349H272.304ZM272.944 337.24C272.571 337.24 272.258 337.127 272.004 336.9C271.751 336.66 271.624 336.347 271.624 335.96C271.624 335.573 271.751 335.267 272.004 335.04C272.258 334.8 272.571 334.68 272.944 334.68C273.318 334.68 273.631 334.8 273.884 335.04C274.138 335.267 274.264 335.573 274.264 335.96C274.264 336.347 274.138 336.66 273.884 336.9C273.631 337.127 273.318 337.24 272.944 337.24Z" fill="white"/>
<path d="M134.264 88.5186C133.446 88.6487 132.889 89.4174 133.019 90.2355L135.138 103.568C135.269 104.386 136.037 104.944 136.855 104.814C137.674 104.684 138.231 103.915 138.101 103.097L136.217 91.2459L148.068 89.3616C148.886 89.2315 149.444 88.4628 149.314 87.6446C149.184 86.8265 148.415 86.2687 147.597 86.3988L134.264 88.5186ZM133.619 91.2141L135.656 92.692L137.418 90.2639L135.381 88.7859L133.619 91.2141ZM139.729 95.6479L143.803 98.6038L145.565 96.1757L141.491 93.2198L139.729 95.6479ZM147.876 101.56L151.95 104.516L153.712 102.087L149.638 99.1315L147.876 101.56ZM156.023 107.471L160.097 110.427L161.859 107.999L157.785 105.043L156.023 107.471ZM164.171 113.383L168.244 116.339L170.006 113.911L165.932 110.955L164.171 113.383ZM172.318 119.295L176.391 122.251L178.153 119.823L174.079 116.867L172.318 119.295ZM180.465 125.207L184.538 128.163L186.3 125.734L182.227 122.779L180.465 125.207ZM188.612 131.118L192.685 134.074L194.447 131.646L190.374 128.69L188.612 131.118ZM196.759 137.03L200.832 139.986L202.594 137.558L198.521 134.602L196.759 137.03ZM204.906 142.942L208.979 145.898L210.741 143.47L206.668 140.514L204.906 142.942ZM213.053 148.854L217.126 151.81L218.888 149.382L214.815 146.426L213.053 148.854ZM221.2 154.766L225.273 157.721L227.035 155.293L222.962 152.337L221.2 154.766ZM229.347 160.677L233.421 163.633L235.182 161.205L231.109 158.249L229.347 160.677ZM237.494 166.589L241.568 169.545L243.329 167.117L239.256 164.161L237.494 166.589ZM245.641 172.501L249.715 175.457L251.477 173.029L247.403 170.073L245.641 172.501ZM253.788 178.413L257.862 181.368L259.624 178.94L255.55 175.984L253.788 178.413ZM261.935 184.324L266.009 187.28L267.771 184.852L263.697 181.896L261.935 184.324ZM270.082 190.236L272.119 191.714L273.881 189.286L271.844 187.808L270.082 190.236Z" fill="#888888"/>
<path d="M115.668 236.811C115.287 237.547 115.575 238.452 116.311 238.832L128.302 245.035C129.038 245.415 129.943 245.127 130.323 244.391C130.704 243.656 130.416 242.75 129.68 242.37L119.021 236.857L124.535 226.198C124.915 225.462 124.627 224.557 123.891 224.177C123.156 223.796 122.25 224.084 121.87 224.82L115.668 236.811ZM117.455 238.929L119.861 238.164L118.951 235.305L116.545 236.071L117.455 238.929ZM124.674 236.633L129.486 235.101L128.576 232.242L123.764 233.774L124.674 236.633ZM134.299 233.57L139.111 232.039L138.201 229.18L133.389 230.711L134.299 233.57ZM143.924 230.508L148.736 228.976L147.826 226.117L143.014 227.649L143.924 230.508ZM153.549 227.445L158.361 225.914L157.451 223.055L152.639 224.586L153.549 227.445ZM163.174 224.383L167.986 222.851L167.076 219.992L162.264 221.524L163.174 224.383ZM172.799 221.32L177.611 219.789L176.701 216.93L171.889 218.461L172.799 221.32ZM182.424 218.258L187.236 216.726L186.326 213.867L181.514 215.399L182.424 218.258ZM192.049 215.195L196.861 213.664L195.951 210.805L191.139 212.336L192.049 215.195ZM201.674 212.133L206.486 210.601L205.576 207.742L200.764 209.274L201.674 212.133ZM211.299 209.07L216.111 207.539L215.201 204.68L210.389 206.211L211.299 209.07ZM220.924 206.008L225.736 204.476L224.826 201.617L220.014 203.149L220.924 206.008ZM230.549 202.945L235.361 201.414L234.451 198.555L229.639 200.086L230.549 202.945ZM240.174 199.883L244.986 198.351L244.076 195.493L239.264 197.024L240.174 199.883ZM249.799 196.82L254.611 195.289L253.701 192.43L248.889 193.961L249.799 196.82ZM259.423 193.758L264.236 192.226L263.326 189.368L258.514 190.899L259.423 193.758ZM269.048 190.695L271.455 189.929L270.545 187.071L268.139 187.836L269.048 190.695Z" fill="#888888"/>
<path d="M257.348 317.461C257.879 318.097 258.825 318.182 259.461 317.652L269.826 309.002C270.462 308.471 270.547 307.525 270.017 306.889C269.486 306.253 268.54 306.168 267.904 306.699L258.691 314.387L251.002 305.174C250.471 304.538 249.525 304.453 248.889 304.983C248.253 305.514 248.168 306.46 248.699 307.096L257.348 317.461ZM259.994 316.635L260.215 314.183L257.227 313.913L257.006 316.365L259.994 316.635ZM260.657 309.279L261.1 304.375L258.112 304.106L257.67 309.009L260.657 309.279ZM261.542 299.471L261.984 294.567L258.996 294.298L258.554 299.202L261.542 299.471ZM262.427 289.664L262.869 284.76L259.881 284.49L259.439 289.394L262.427 289.664ZM263.311 279.856L263.754 274.952L260.766 274.683L260.323 279.586L263.311 279.856ZM264.196 270.048L264.638 265.144L261.65 264.875L261.208 269.779L264.196 270.048ZM265.08 260.241L265.523 255.337L262.535 255.067L262.093 259.971L265.08 260.241ZM265.965 250.433L266.407 245.529L263.42 245.259L262.977 250.163L265.965 250.433ZM266.85 240.625L267.292 235.721L264.304 235.452L263.862 240.356L266.85 240.625ZM267.734 230.817L268.177 225.914L265.189 225.644L264.746 230.548L267.734 230.817ZM268.619 221.01L269.061 216.106L266.073 215.836L265.631 220.74L268.619 221.01ZM269.504 211.202L269.946 206.298L266.958 206.029L266.516 210.933L269.504 211.202ZM270.388 201.394L270.83 196.491L267.843 196.221L267.4 201.125L270.388 201.394ZM271.273 191.587L271.494 189.135L268.506 188.865L268.285 191.317L271.273 191.587Z" fill="#888888"/>
<path d="M105 371.5L269.5 189" stroke="url(#paint0_linear_263_79)" stroke-dasharray="5 5"/>
<path d="M266 189L494.5 353.5" stroke="url(#paint1_linear_263_79)" stroke-dasharray="5 5"/>
<path d="M269 188.5L489 53.5" stroke="url(#paint2_linear_263_79)" stroke-dasharray="5 5"/>
<path d="M266 187L209 8.5" stroke="url(#paint3_linear_263_79)" stroke-dasharray="5 5"/>
<path d="M267 188L29 140" stroke="url(#paint4_linear_263_79)" stroke-dasharray="5 5"/>
<path d="M417.743 162.84C418.207 162.154 418.027 161.222 417.34 160.757L406.158 153.195C405.471 152.731 404.539 152.911 404.075 153.597C403.611 154.283 403.791 155.216 404.477 155.68L414.417 162.402L407.695 172.342C407.231 173.029 407.411 173.961 408.097 174.425C408.783 174.889 409.716 174.709 410.18 174.023L417.743 162.84ZM271.784 191.473L274.201 191.006L273.632 188.061L271.216 188.527L271.784 191.473ZM279.034 190.073L283.868 189.139L283.299 186.194L278.466 187.127L279.034 190.073ZM288.701 188.206L293.534 187.273L292.966 184.327L288.132 185.261L288.701 188.206ZM298.368 186.339L303.201 185.406L302.632 182.461L297.799 183.394L298.368 186.339ZM308.034 184.473L312.868 183.539L312.299 180.594L307.466 181.527L308.034 184.473ZM317.701 182.606L322.534 181.673L321.966 178.727L317.132 179.661L317.701 182.606ZM327.368 180.739L332.201 179.806L331.632 176.861L326.799 177.794L327.368 180.739ZM337.034 178.873L341.868 177.939L341.299 174.994L336.466 175.927L337.034 178.873ZM346.701 177.006L351.534 176.073L350.966 173.127L346.132 174.061L346.701 177.006ZM356.368 175.139L361.201 174.206L360.632 171.261L355.799 172.194L356.368 175.139ZM366.034 173.273L370.868 172.339L370.299 169.394L365.466 170.327L366.034 173.273ZM375.701 171.406L380.534 170.473L379.966 167.527L375.132 168.461L375.701 171.406ZM385.368 169.539L390.201 168.606L389.632 165.661L384.799 166.594L385.368 169.539ZM395.034 167.673L399.868 166.739L399.299 163.794L394.466 164.727L395.034 167.673ZM404.701 165.806L409.534 164.873L408.966 161.927L404.132 162.861L404.701 165.806ZM414.368 163.939L416.784 163.473L416.216 160.527L413.799 160.994L414.368 163.939Z" fill="#888888"/>
<path d="M301.251 45.673C300.795 44.9819 299.864 44.7918 299.173 45.2486L287.91 52.6913C287.219 53.1481 287.029 54.0786 287.486 54.7698C287.942 55.4609 288.873 55.651 289.564 55.1942L299.576 48.5784L306.191 58.59C306.648 59.2811 307.579 59.4712 308.27 59.0144C308.961 58.5577 309.151 57.6272 308.694 56.936L301.251 45.673ZM272.47 188.8L272.988 186.264L270.048 185.664L269.53 188.2L272.47 188.8ZM274.023 181.193L275.059 176.122L272.12 175.521L271.084 180.593L274.023 181.193ZM276.095 171.05L277.13 165.979L274.191 165.378L273.155 170.45L276.095 171.05ZM278.166 160.907L279.202 155.836L276.262 155.236L275.227 160.307L278.166 160.907ZM280.238 150.764L281.273 145.693L278.334 145.093L277.298 150.164L280.238 150.764ZM282.309 140.622L283.345 135.55L280.405 134.95L279.37 140.021L282.309 140.622ZM284.38 130.479L285.416 125.407L282.477 124.807L281.441 129.878L284.38 130.479ZM286.452 120.336L287.488 115.264L284.548 114.664L283.512 119.736L286.452 120.336ZM288.523 110.193L289.559 105.122L286.62 104.521L285.584 109.593L288.523 110.193ZM290.595 100.05L291.63 94.9787L288.691 94.3784L287.655 99.4498L290.595 100.05ZM292.666 89.9073L293.702 84.8358L290.762 84.2356L289.727 89.307L292.666 89.9073ZM294.738 79.7644L295.773 74.693L292.834 74.0927L291.798 79.1641L294.738 79.7644ZM296.809 69.6215L297.845 64.5501L294.905 63.9498L293.87 69.0213L296.809 69.6215ZM298.88 59.4787L299.916 54.4073L296.977 53.807L295.941 58.8784L298.88 59.4787ZM300.952 49.3358L301.47 46.8001L298.53 46.1999L298.012 48.7356L300.952 49.3358Z" fill="#888888"/>
<circle cx="269" cy="189" r="91" fill="url(#paint5_radial_263_79)" style="mix-blend-mode:color-dodge"/>
<defs>
<linearGradient id="paint0_linear_263_79" x1="187.25" y1="189" x2="187.25" y2="371.5" gradientUnits="userSpaceOnUse">
<stop stop-color="#888888"/>
<stop offset="1" stop-color="#121212" stop-opacity="0"/>
</linearGradient>
<linearGradient id="paint1_linear_263_79" x1="494.5" y1="271.25" x2="266" y2="271.25" gradientUnits="userSpaceOnUse">
<stop stop-color="#121212" stop-opacity="0"/>
<stop offset="1" stop-color="#888888"/>
</linearGradient>
<linearGradient id="paint2_linear_263_79" x1="379" y1="53.5" x2="379" y2="188.5" gradientUnits="userSpaceOnUse">
<stop stop-color="#121212" stop-opacity="0"/>
<stop offset="1" stop-color="#888888"/>
</linearGradient>
<linearGradient id="paint3_linear_263_79" x1="237.5" y1="8.5" x2="237.5" y2="187" gradientUnits="userSpaceOnUse">
<stop stop-color="#121212" stop-opacity="0"/>
<stop offset="1" stop-color="#888888"/>
</linearGradient>
<linearGradient id="paint4_linear_263_79" x1="148" y1="140" x2="148" y2="188" gradientUnits="userSpaceOnUse">
<stop stop-color="#121212" stop-opacity="0"/>
<stop offset="1" stop-color="#888888"/>
</linearGradient>
<radialGradient id="paint5_radial_263_79" cx="0" cy="0" r="1" gradientUnits="userSpaceOnUse" gradientTransform="translate(269 189) rotate(90) scale(91)">
<stop stop-color="white" stop-opacity="0.88"/>
<stop offset="1" stop-color="#121212" stop-opacity="0"/>
</radialGradient>
</defs>
</svg>
