<svg width="305" height="213" viewBox="0 0 305 213" fill="none" xmlns="http://www.w3.org/2000/svg">
<rect x="24.8493" y="25.9917" width="52.8537" height="24.8537" stroke="#888888" stroke-width="0.571247"/>
<path d="M34.7776 42.5556C34.2368 42.5556 33.8102 42.4603 33.498 42.2699C33.1857 42.0719 32.961 41.8015 32.8239 41.4588C32.6944 41.116 32.6297 40.7161 32.6297 40.2591V37.6314H31.0644V36.9231L32.6639 36.8659L32.7896 35.0836H33.5665V36.8659H36.2971V37.6314H33.5665V40.2706C33.5665 40.5981 33.6084 40.8761 33.6922 41.1046C33.776 41.3331 33.9207 41.5045 34.1263 41.6187C34.332 41.733 34.6138 41.7901 34.9718 41.7901C35.2384 41.7901 35.4783 41.7672 35.6915 41.7215C35.9048 41.6758 36.1105 41.6149 36.3085 41.5387L36.5141 42.2242C36.2628 42.3156 35.9962 42.3918 35.7144 42.4527C35.4402 42.5213 35.1279 42.5556 34.7776 42.5556ZM40.5084 44.9776C39.9676 44.9776 39.5068 44.9167 39.126 44.7948C38.7452 44.673 38.4519 44.4978 38.2463 44.2693C38.0482 44.0408 37.9492 43.7628 37.9492 43.4353C37.9492 43.2144 38.0254 42.9935 38.1777 42.7726C38.3377 42.5594 38.5662 42.3689 38.8632 42.2014V42.1557C38.7185 42.0719 38.5852 41.9577 38.4633 41.8129C38.3491 41.6682 38.292 41.4778 38.292 41.2417C38.292 41.0665 38.3491 40.8875 38.4633 40.7047C38.5776 40.5143 38.7414 40.3467 38.9546 40.202V40.1563C38.7642 40.0116 38.6004 39.8174 38.4633 39.5736C38.3339 39.3299 38.2691 39.0443 38.2691 38.7168C38.2691 38.3131 38.3681 37.9627 38.5662 37.6657C38.7718 37.3686 39.0384 37.1401 39.3659 36.9802C39.701 36.8126 40.0628 36.7288 40.4513 36.7288C40.7636 36.7288 41.0378 36.7745 41.2739 36.8659H43.5703V37.6314H42.1308C42.2602 37.7609 42.3707 37.9246 42.4621 38.1227C42.5535 38.3207 42.5992 38.5302 42.5992 38.7511C42.5992 39.1471 42.504 39.4899 42.3136 39.7793C42.1231 40.0611 41.8642 40.2782 41.5367 40.4305C41.2168 40.5828 40.855 40.659 40.4513 40.659C40.3066 40.659 40.1504 40.6438 39.9829 40.6133C39.8229 40.5752 39.6668 40.5219 39.5144 40.4534C39.3773 40.5371 39.2707 40.6324 39.1945 40.739C39.1184 40.8456 39.0803 40.9637 39.0803 41.0932C39.0803 41.3064 39.1793 41.4664 39.3773 41.573C39.583 41.6796 39.8686 41.733 40.2342 41.733H41.4795C42.1955 41.733 42.7248 41.832 43.0676 42.03C43.418 42.228 43.5931 42.5632 43.5931 43.0354C43.5931 43.3782 43.4675 43.6981 43.2161 43.9951C42.9648 44.2921 42.6068 44.5283 42.1422 44.7034C41.6852 44.8862 41.1406 44.9776 40.5084 44.9776ZM40.4513 40.0306C40.6874 40.0306 40.9007 39.9773 41.0911 39.8707C41.2891 39.7641 41.4453 39.6117 41.5595 39.4137C41.6738 39.2157 41.7309 38.9834 41.7309 38.7168C41.7309 38.4578 41.6738 38.2331 41.5595 38.0427C41.4453 37.8447 41.2891 37.6923 41.0911 37.5857C40.9007 37.4715 40.6874 37.4143 40.4513 37.4143C40.2228 37.4143 40.0095 37.4715 39.8115 37.5857C39.6211 37.6923 39.4649 37.8447 39.3431 38.0427C39.2288 38.2331 39.1717 38.4578 39.1717 38.7168C39.1717 38.9834 39.2288 39.2157 39.3431 39.4137C39.4649 39.6117 39.6211 39.7641 39.8115 39.8707C40.0095 39.9773 40.2228 40.0306 40.4513 40.0306ZM40.577 44.2921C41.0111 44.2921 41.3843 44.2388 41.6966 44.1322C42.0089 44.0256 42.2488 43.8885 42.4164 43.7209C42.5839 43.5533 42.6677 43.3743 42.6677 43.1839C42.6677 42.9173 42.5611 42.7384 42.3478 42.647C42.1422 42.5556 41.8261 42.5099 41.3996 42.5099H40.3142C40.1542 42.5099 40.0019 42.5022 39.8572 42.487C39.7201 42.4718 39.5906 42.4489 39.4687 42.4185C39.2098 42.5632 39.027 42.7117 38.9203 42.864C38.8137 43.024 38.7604 43.1839 38.7604 43.3439C38.7604 43.6333 38.9127 43.8618 39.2174 44.0294C39.5297 44.2046 39.9829 44.2921 40.577 44.2921ZM54.4836 42.5556C54.2094 42.5556 53.9162 42.4908 53.6039 42.3613C53.2992 42.2242 53.0174 42.0376 52.7584 41.8015H52.7242L52.6442 42.4185H51.8902V34.2839H52.827V36.5003L52.7927 37.5743H52.827C53.0783 37.3153 53.3678 37.1097 53.6953 36.9573C54.0304 36.805 54.3617 36.7288 54.6893 36.7288C55.192 36.7288 55.6147 36.8469 55.9574 37.083C56.3002 37.3115 56.5591 37.639 56.7343 38.0656C56.9095 38.4845 56.9971 38.9795 56.9971 39.5508C56.9971 40.183 56.879 40.7238 56.6429 41.1731C56.4144 41.6225 56.1098 41.9653 55.7289 42.2014C55.3481 42.4375 54.933 42.5556 54.4836 42.5556ZM54.3351 41.7672C54.655 41.7672 54.9406 41.6796 55.192 41.5045C55.4509 41.3293 55.6528 41.0779 55.7975 40.7504C55.9498 40.4153 56.026 40.0192 56.026 39.5622C56.026 39.1585 55.9727 38.8044 55.866 38.4997C55.7594 38.1874 55.5918 37.9475 55.3633 37.7799C55.1348 37.6047 54.834 37.5172 54.4608 37.5172C54.2094 37.5172 53.9428 37.5857 53.661 37.7228C53.3868 37.8523 53.1088 38.0617 52.827 38.3512V41.116C53.0936 41.3521 53.3602 41.5197 53.6267 41.6187C53.9009 41.7177 54.1371 41.7672 54.3351 41.7672ZM61.1056 42.5556C60.6182 42.5556 60.165 42.4413 59.746 42.2128C59.3348 41.9843 58.9996 41.653 58.7407 41.2188C58.4893 40.7847 58.3636 40.263 58.3636 39.6536C58.3636 39.0291 58.4893 38.4997 58.7407 38.0656C58.9996 37.6314 59.3348 37.3001 59.746 37.0716C60.165 36.8431 60.6182 36.7288 61.1056 36.7288C61.5931 36.7288 62.0425 36.8431 62.4538 37.0716C62.8727 37.3001 63.2078 37.6314 63.4592 38.0656C63.7181 38.4997 63.8476 39.0291 63.8476 39.6536C63.8476 40.263 63.7181 40.7847 63.4592 41.2188C63.2078 41.653 62.8727 41.9843 62.4538 42.2128C62.0425 42.4413 61.5931 42.5556 61.1056 42.5556ZM61.1056 41.7787C61.4636 41.7787 61.7759 41.6911 62.0425 41.5159C62.309 41.3331 62.5147 41.0817 62.6594 40.7618C62.8041 40.4419 62.8765 40.0725 62.8765 39.6536C62.8765 39.2271 62.8041 38.8539 62.6594 38.534C62.5147 38.2065 62.309 37.9551 62.0425 37.7799C61.7759 37.5971 61.4636 37.5057 61.1056 37.5057C60.7476 37.5057 60.4354 37.5971 60.1688 37.7799C59.9098 37.9551 59.7042 38.2065 59.5518 38.534C59.4071 38.8539 59.3348 39.2271 59.3348 39.6536C59.3348 40.0725 59.4071 40.4419 59.5518 40.7618C59.7042 41.0817 59.9098 41.3331 60.1688 41.5159C60.4354 41.6911 60.7476 41.7787 61.1056 41.7787ZM69.0301 42.5556C68.4893 42.5556 68.0628 42.4603 67.7505 42.2699C67.4382 42.0719 67.2135 41.8015 67.0764 41.4588C66.9469 41.116 66.8822 40.7161 66.8822 40.2591V37.6314H65.317V36.9231L66.9165 36.8659L67.0421 35.0836H67.819V36.8659H70.5496V37.6314H67.819V40.2706C67.819 40.5981 67.8609 40.8761 67.9447 41.1046C68.0285 41.3331 68.1732 41.5045 68.3788 41.6187C68.5845 41.733 68.8663 41.7901 69.2243 41.7901C69.4909 41.7901 69.7308 41.7672 69.9441 41.7215C70.1573 41.6758 70.363 41.6149 70.561 41.5387L70.7667 42.2242C70.5153 42.3156 70.2487 42.3918 69.9669 42.4527C69.6927 42.5213 69.3804 42.5556 69.0301 42.5556Z" fill="white"/>
<rect x="171.66" y="0.285624" width="31.8537" height="24.8537" stroke="#888888" stroke-width="0.571247"/>
<path d="M179.897 16.8495C179.554 16.8495 179.238 16.7886 178.949 16.6667C178.659 16.5372 178.431 16.3544 178.263 16.1183C178.096 15.8822 178.012 15.6004 178.012 15.2729C178.012 14.6483 178.324 14.1761 178.949 13.8562C179.573 13.5287 180.602 13.3078 182.034 13.1935C182.026 12.9422 181.973 12.7099 181.874 12.4966C181.782 12.2833 181.63 12.1158 181.417 11.9939C181.203 11.8644 180.918 11.7997 180.56 11.7997C180.324 11.7997 180.088 11.834 179.851 11.9025C179.623 11.9634 179.402 12.0472 179.189 12.1538C178.983 12.2529 178.793 12.3557 178.618 12.4623L178.252 11.8225C178.435 11.7007 178.656 11.5788 178.915 11.4569C179.181 11.3274 179.467 11.2246 179.771 11.1485C180.076 11.0647 180.392 11.0228 180.72 11.0228C181.23 11.0228 181.649 11.118 181.976 11.3084C182.312 11.4988 182.559 11.7654 182.719 12.1082C182.887 12.4433 182.97 12.8432 182.97 13.3078V16.7124H182.205L182.125 15.9584H182.091C181.786 16.2021 181.443 16.4115 181.062 16.5867C180.682 16.7619 180.293 16.8495 179.897 16.8495ZM180.148 16.0955C180.468 16.0955 180.784 16.0231 181.097 15.8784C181.409 15.7337 181.721 15.5318 182.034 15.2729V13.8105C181.241 13.879 180.617 13.9742 180.16 14.0961C179.711 14.218 179.391 14.3741 179.2 14.5645C179.017 14.7473 178.926 14.9606 178.926 15.2043C178.926 15.41 178.983 15.5813 179.097 15.7184C179.212 15.8479 179.36 15.9431 179.543 16.0041C179.733 16.065 179.935 16.0955 180.148 16.0955ZM185 19.0545V11.1599H185.777L185.857 11.8682H185.891C186.15 11.6245 186.447 11.4227 186.782 11.2627C187.125 11.1028 187.467 11.0228 187.81 11.0228C188.313 11.0228 188.732 11.1408 189.067 11.377C189.41 11.6055 189.669 11.933 189.844 12.3595C190.019 12.7784 190.107 13.2773 190.107 13.8562C190.107 14.4807 189.989 15.0177 189.752 15.4671C189.516 15.9165 189.208 16.2592 188.827 16.4953C188.446 16.7314 188.031 16.8495 187.582 16.8495C187.33 16.8495 187.052 16.7886 186.748 16.6667C186.451 16.5372 186.176 16.3582 185.925 16.1297H185.891L185.936 17.1808V19.0545H185ZM187.422 16.0612C187.749 16.0612 188.042 15.9736 188.301 15.7984C188.56 15.6232 188.762 15.3719 188.907 15.0444C189.059 14.7092 189.135 14.3132 189.135 13.8562C189.135 13.4525 189.082 13.0983 188.976 12.7936C188.869 12.4814 188.701 12.2414 188.473 12.0739C188.244 11.8987 187.943 11.8111 187.57 11.8111C187.319 11.8111 187.052 11.8797 186.77 12.0168C186.496 12.1462 186.218 12.3557 185.936 12.6451V15.41C186.203 15.6461 186.47 15.8136 186.736 15.9127C187.01 16.0117 187.239 16.0612 187.422 16.0612ZM191.85 19.0545V11.1599H192.627L192.707 11.8682H192.741C193 11.6245 193.297 11.4227 193.632 11.2627C193.975 11.1028 194.318 11.0228 194.661 11.0228C195.163 11.0228 195.582 11.1408 195.917 11.377C196.26 11.6055 196.519 11.933 196.694 12.3595C196.869 12.7784 196.957 13.2773 196.957 13.8562C196.957 14.4807 196.839 15.0177 196.603 15.4671C196.367 15.9165 196.058 16.2592 195.677 16.4953C195.297 16.7314 194.882 16.8495 194.432 16.8495C194.181 16.8495 193.903 16.7886 193.598 16.6667C193.301 16.5372 193.027 16.3582 192.776 16.1297H192.741L192.787 17.1808V19.0545H191.85ZM194.272 16.0612C194.6 16.0612 194.893 15.9736 195.152 15.7984C195.411 15.6232 195.613 15.3719 195.757 15.0444C195.91 14.7092 195.986 14.3132 195.986 13.8562C195.986 13.4525 195.933 13.0983 195.826 12.7936C195.719 12.4814 195.552 12.2414 195.323 12.0739C195.095 11.8987 194.794 11.8111 194.421 11.8111C194.169 11.8111 193.903 11.8797 193.621 12.0168C193.347 12.1462 193.069 12.3557 192.787 12.6451V15.41C193.054 15.6461 193.32 15.8136 193.587 15.9127C193.861 16.0117 194.089 16.0612 194.272 16.0612Z" fill="white"/>
<rect x="238.496" y="92.2563" width="65.8537" height="24.8537" stroke="#888888" stroke-width="0.571247"/>
<path d="M247.304 111.242C246.764 111.242 246.303 111.181 245.922 111.059C245.541 110.938 245.248 110.762 245.042 110.534C244.844 110.305 244.745 110.027 244.745 109.7C244.745 109.479 244.821 109.258 244.974 109.037C245.134 108.824 245.362 108.634 245.659 108.466V108.42C245.514 108.337 245.381 108.222 245.259 108.078C245.145 107.933 245.088 107.742 245.088 107.506C245.088 107.331 245.145 107.152 245.259 106.969C245.374 106.779 245.537 106.611 245.751 106.467V106.421C245.56 106.276 245.396 106.082 245.259 105.838C245.13 105.595 245.065 105.309 245.065 104.981C245.065 104.578 245.164 104.227 245.362 103.93C245.568 103.633 245.834 103.405 246.162 103.245C246.497 103.077 246.859 102.993 247.247 102.993C247.559 102.993 247.834 103.039 248.07 103.131H250.366V103.896H248.927C249.056 104.026 249.167 104.189 249.258 104.387C249.349 104.585 249.395 104.795 249.395 105.016C249.395 105.412 249.3 105.755 249.109 106.044C248.919 106.326 248.66 106.543 248.333 106.695C248.013 106.847 247.651 106.924 247.247 106.924C247.102 106.924 246.946 106.908 246.779 106.878C246.619 106.84 246.463 106.787 246.31 106.718C246.173 106.802 246.067 106.897 245.99 107.004C245.914 107.11 245.876 107.228 245.876 107.358C245.876 107.571 245.975 107.731 246.173 107.838C246.379 107.944 246.665 107.998 247.03 107.998H248.275C248.991 107.998 249.521 108.097 249.864 108.295C250.214 108.493 250.389 108.828 250.389 109.3C250.389 109.643 250.263 109.963 250.012 110.26C249.761 110.557 249.403 110.793 248.938 110.968C248.481 111.151 247.937 111.242 247.304 111.242ZM247.247 106.295C247.483 106.295 247.697 106.242 247.887 106.135C248.085 106.029 248.241 105.876 248.355 105.678C248.47 105.48 248.527 105.248 248.527 104.981C248.527 104.722 248.47 104.498 248.355 104.307C248.241 104.109 248.085 103.957 247.887 103.85C247.697 103.736 247.483 103.679 247.247 103.679C247.019 103.679 246.805 103.736 246.607 103.85C246.417 103.957 246.261 104.109 246.139 104.307C246.025 104.498 245.968 104.722 245.968 104.981C245.968 105.248 246.025 105.48 246.139 105.678C246.261 105.876 246.417 106.029 246.607 106.135C246.805 106.242 247.019 106.295 247.247 106.295ZM247.373 110.557C247.807 110.557 248.18 110.503 248.493 110.397C248.805 110.29 249.045 110.153 249.212 109.986C249.38 109.818 249.464 109.639 249.464 109.449C249.464 109.182 249.357 109.003 249.144 108.912C248.938 108.82 248.622 108.775 248.195 108.775H247.11C246.95 108.775 246.798 108.767 246.653 108.752C246.516 108.736 246.387 108.714 246.265 108.683C246.006 108.828 245.823 108.976 245.716 109.129C245.61 109.289 245.556 109.449 245.556 109.609C245.556 109.898 245.709 110.126 246.013 110.294C246.326 110.469 246.779 110.557 247.373 110.557ZM251.916 108.683V101.188H254.246C254.757 101.188 255.206 101.257 255.594 101.394C255.99 101.523 256.299 101.744 256.52 102.057C256.748 102.361 256.863 102.773 256.863 103.291C256.863 103.793 256.748 104.208 256.52 104.536C256.299 104.863 255.99 105.111 255.594 105.278C255.206 105.438 254.757 105.518 254.246 105.518H252.864V108.683H251.916ZM252.864 104.741H254.109C254.696 104.741 255.141 104.623 255.446 104.387C255.758 104.144 255.914 103.778 255.914 103.291C255.914 102.803 255.758 102.46 255.446 102.262C255.141 102.057 254.696 101.954 254.109 101.954H252.864V104.741ZM254.052 105.256L254.806 104.753L257.091 108.683H256.006L254.052 105.256ZM258.789 108.683V101.188H261.051C261.607 101.188 262.091 101.261 262.502 101.405C262.921 101.543 263.245 101.771 263.473 102.091C263.709 102.411 263.827 102.845 263.827 103.393C263.827 103.919 263.709 104.353 263.473 104.696C263.245 105.031 262.921 105.286 262.502 105.461C262.083 105.629 261.599 105.713 261.051 105.713H259.737V108.683H258.789ZM259.737 104.936H260.937C261.592 104.936 262.075 104.81 262.388 104.559C262.708 104.307 262.868 103.919 262.868 103.393C262.868 102.853 262.708 102.479 262.388 102.274C262.068 102.06 261.584 101.954 260.937 101.954H259.737V104.936ZM268.484 108.82C268.02 108.82 267.589 108.733 267.193 108.557C266.797 108.382 266.451 108.131 266.154 107.803C265.856 107.468 265.624 107.061 265.457 106.581C265.297 106.093 265.217 105.545 265.217 104.936C265.217 104.136 265.361 103.447 265.651 102.868C265.94 102.281 266.336 101.832 266.839 101.52C267.342 101.207 267.921 101.051 268.576 101.051C269.025 101.051 269.425 101.146 269.775 101.337C270.126 101.52 270.407 101.729 270.621 101.965L270.084 102.571C269.893 102.357 269.672 102.19 269.421 102.068C269.17 101.946 268.888 101.885 268.576 101.885C268.096 101.885 267.677 102.011 267.319 102.262C266.969 102.506 266.694 102.853 266.496 103.302C266.298 103.751 266.199 104.288 266.199 104.913C266.199 105.545 266.298 106.09 266.496 106.547C266.694 107.004 266.969 107.358 267.319 107.609C267.677 107.861 268.096 107.986 268.576 107.986C268.918 107.986 269.227 107.914 269.501 107.769C269.775 107.624 270.03 107.419 270.267 107.152L270.803 107.735C270.514 108.078 270.179 108.344 269.798 108.535C269.417 108.725 268.979 108.82 268.484 108.82ZM280.986 108.82C280.643 108.82 280.327 108.759 280.037 108.637C279.748 108.508 279.519 108.325 279.352 108.089C279.184 107.853 279.1 107.571 279.1 107.244C279.1 106.619 279.413 106.147 280.037 105.827C280.662 105.499 281.69 105.278 283.122 105.164C283.114 104.913 283.061 104.681 282.962 104.467C282.871 104.254 282.718 104.086 282.505 103.965C282.292 103.835 282.006 103.77 281.648 103.77C281.412 103.77 281.176 103.805 280.94 103.873C280.711 103.934 280.491 104.018 280.277 104.125C280.072 104.224 279.881 104.326 279.706 104.433L279.34 103.793C279.523 103.671 279.744 103.549 280.003 103.428C280.27 103.298 280.555 103.195 280.86 103.119C281.165 103.035 281.481 102.993 281.808 102.993C282.319 102.993 282.737 103.089 283.065 103.279C283.4 103.47 283.648 103.736 283.808 104.079C283.975 104.414 284.059 104.814 284.059 105.278V108.683H283.293L283.213 107.929H283.179C282.875 108.173 282.532 108.382 282.151 108.557C281.77 108.733 281.382 108.82 280.986 108.82ZM281.237 108.066C281.557 108.066 281.873 107.994 282.185 107.849C282.497 107.704 282.81 107.503 283.122 107.244V105.781C282.33 105.85 281.705 105.945 281.248 106.067C280.799 106.189 280.479 106.345 280.289 106.535C280.106 106.718 280.014 106.931 280.014 107.175C280.014 107.381 280.072 107.552 280.186 107.689C280.3 107.819 280.449 107.914 280.631 107.975C280.822 108.036 281.024 108.066 281.237 108.066ZM286.088 111.025V103.131H286.865L286.945 103.839H286.979C287.238 103.595 287.535 103.393 287.87 103.233C288.213 103.073 288.556 102.993 288.899 102.993C289.401 102.993 289.82 103.112 290.155 103.348C290.498 103.576 290.757 103.904 290.932 104.33C291.107 104.749 291.195 105.248 291.195 105.827C291.195 106.451 291.077 106.988 290.841 107.438C290.605 107.887 290.296 108.23 289.915 108.466C289.535 108.702 289.12 108.82 288.67 108.82C288.419 108.82 288.141 108.759 287.836 108.637C287.539 108.508 287.265 108.329 287.014 108.1H286.979L287.025 109.152V111.025H286.088ZM288.51 108.032C288.838 108.032 289.131 107.944 289.39 107.769C289.649 107.594 289.851 107.343 289.995 107.015C290.148 106.68 290.224 106.284 290.224 105.827C290.224 105.423 290.171 105.069 290.064 104.764C289.957 104.452 289.79 104.212 289.561 104.045C289.333 103.869 289.032 103.782 288.659 103.782C288.407 103.782 288.141 103.85 287.859 103.987C287.585 104.117 287.307 104.326 287.025 104.616V107.381C287.292 107.617 287.558 107.784 287.825 107.883C288.099 107.982 288.327 108.032 288.51 108.032ZM295.486 108.683V103.896H292.904V103.131H296.423V108.683H295.486ZM295.852 101.965C295.639 101.965 295.46 101.9 295.315 101.771C295.17 101.634 295.098 101.455 295.098 101.234C295.098 101.013 295.17 100.838 295.315 100.708C295.46 100.571 295.639 100.503 295.852 100.503C296.065 100.503 296.244 100.571 296.389 100.708C296.534 100.838 296.606 101.013 296.606 101.234C296.606 101.455 296.534 101.634 296.389 101.771C296.244 101.9 296.065 101.965 295.852 101.965Z" fill="white"/>
<rect x="0.285624" y="136.242" width="65.8537" height="24.8537" stroke="#888888" stroke-width="0.571247"/>
<path d="M6.77498 152.669V144.535H7.71183V146.751L7.6547 148.065H7.68898C7.97079 147.76 8.27927 147.505 8.6144 147.299C8.94953 147.086 9.33417 146.98 9.76832 146.98C10.4233 146.98 10.907 147.17 11.2193 147.551C11.5316 147.932 11.6877 148.488 11.6877 149.219V152.669H10.7509V149.345C10.7509 148.819 10.6518 148.431 10.4538 148.179C10.2558 147.92 9.92827 147.791 9.47127 147.791C9.14375 147.791 8.85051 147.875 8.59155 148.042C8.33258 148.21 8.03934 148.461 7.71183 148.796V152.669H6.77498ZM17.0644 152.806C16.5236 152.806 16.0971 152.711 15.7848 152.521C15.4725 152.323 15.2478 152.052 15.1107 151.709C14.9812 151.367 14.9165 150.967 14.9165 150.51V147.882H13.3513V147.174L14.9508 147.117L15.0765 145.334H15.8534V147.117H18.5839V147.882H15.8534V150.521C15.8534 150.849 15.8952 151.127 15.979 151.355C16.0628 151.584 16.2075 151.755 16.4132 151.869C16.6188 151.984 16.9006 152.041 17.2586 152.041C17.5252 152.041 17.7651 152.018 17.9784 151.972C18.1917 151.927 18.3973 151.866 18.5953 151.789L18.801 152.475C18.5496 152.566 18.2831 152.643 18.0012 152.703C17.727 152.772 17.4148 152.806 17.0644 152.806ZM23.9149 152.806C23.3741 152.806 22.9476 152.711 22.6353 152.521C22.323 152.323 22.0983 152.052 21.9612 151.709C21.8317 151.367 21.767 150.967 21.767 150.51V147.882H20.2018V147.174L21.8013 147.117L21.927 145.334H22.7039V147.117H25.4344V147.882H22.7039V150.521C22.7039 150.849 22.7457 151.127 22.8295 151.355C22.9133 151.584 23.058 151.755 23.2637 151.869C23.4693 151.984 23.7511 152.041 24.1091 152.041C24.3757 152.041 24.6156 152.018 24.8289 151.972C25.0422 151.927 25.2478 151.866 25.4458 151.789L25.6515 152.475C25.4001 152.566 25.1336 152.643 24.8517 152.703C24.5775 152.772 24.2653 152.806 23.9149 152.806ZM27.3265 155.011V147.117H28.1034L28.1834 147.825H28.2176C28.4766 147.581 28.7737 147.379 29.1088 147.219C29.4515 147.06 29.7943 146.98 30.137 146.98C30.6397 146.98 31.0586 147.098 31.3938 147.334C31.7365 147.562 31.9955 147.89 32.1707 148.316C32.3459 148.735 32.4334 149.234 32.4334 149.813C32.4334 150.438 32.3154 150.974 32.0793 151.424C31.8432 151.873 31.5347 152.216 31.1538 152.452C30.773 152.688 30.3579 152.806 29.9085 152.806C29.6572 152.806 29.3792 152.745 29.0745 152.623C28.7775 152.494 28.5033 152.315 28.2519 152.087H28.2176L28.2633 153.138V155.011H27.3265ZM29.7486 152.018C30.0761 152.018 30.3693 151.93 30.6283 151.755C30.8873 151.58 31.0891 151.329 31.2338 151.001C31.3862 150.666 31.4623 150.27 31.4623 149.813C31.4623 149.409 31.409 149.055 31.3024 148.75C31.1957 148.438 31.0282 148.198 30.7997 148.031C30.5712 147.855 30.2703 147.768 29.8971 147.768C29.6458 147.768 29.3792 147.836 29.0974 147.974C28.8232 148.103 28.5452 148.312 28.2633 148.602V151.367C28.5299 151.603 28.7965 151.77 29.0631 151.869C29.3373 151.968 29.5658 152.018 29.7486 152.018ZM42.7755 152.806C42.4328 152.806 42.1167 152.745 41.8272 152.623C41.5378 152.494 41.3093 152.311 41.1417 152.075C40.9742 151.839 40.8904 151.557 40.8904 151.23C40.8904 150.605 41.2027 150.133 41.8272 149.813C42.4518 149.485 43.4801 149.265 44.912 149.15C44.9044 148.899 44.851 148.667 44.752 148.453C44.6606 148.24 44.5083 148.073 44.295 147.951C44.0818 147.821 43.7961 147.756 43.4382 147.756C43.202 147.756 42.9659 147.791 42.7298 147.859C42.5013 147.92 42.2804 148.004 42.0672 148.111C41.8615 148.21 41.6711 148.312 41.4959 148.419L41.1303 147.779C41.3131 147.657 41.534 147.536 41.793 147.414C42.0596 147.284 42.3452 147.181 42.6498 147.105C42.9545 147.021 43.2706 146.98 43.5981 146.98C44.1084 146.98 44.5273 147.075 44.8549 147.265C45.19 147.456 45.4375 147.722 45.5975 148.065C45.765 148.4 45.8488 148.8 45.8488 149.265V152.669H45.0834L45.0034 151.915H44.9691C44.6644 152.159 44.3217 152.368 43.9409 152.544C43.56 152.719 43.1716 152.806 42.7755 152.806ZM43.0269 152.052C43.3468 152.052 43.6629 151.98 43.9751 151.835C44.2874 151.69 44.5997 151.489 44.912 151.23V149.767C44.1198 149.836 43.4953 149.931 43.0383 150.053C42.5889 150.175 42.269 150.331 42.0786 150.521C41.8958 150.704 41.8044 150.917 41.8044 151.161C41.8044 151.367 41.8615 151.538 41.9758 151.675C42.09 151.805 42.2385 151.9 42.4213 151.961C42.6118 152.022 42.8136 152.052 43.0269 152.052ZM47.878 155.011V147.117H48.6549L48.7349 147.825H48.7691C49.0281 147.581 49.3252 147.379 49.6603 147.219C50.003 147.06 50.3458 146.98 50.6885 146.98C51.1912 146.98 51.6102 147.098 51.9453 147.334C52.288 147.562 52.547 147.89 52.7222 148.316C52.8974 148.735 52.985 149.234 52.985 149.813C52.985 150.438 52.8669 150.974 52.6308 151.424C52.3947 151.873 52.0862 152.216 51.7054 152.452C51.3245 152.688 50.9094 152.806 50.46 152.806C50.2087 152.806 49.9307 152.745 49.626 152.623C49.329 152.494 49.0548 152.315 48.8034 152.087H48.7691L48.8148 153.138V155.011H47.878ZM50.3001 152.018C50.6276 152.018 50.9208 151.93 51.1798 151.755C51.4388 151.58 51.6406 151.329 51.7853 151.001C51.9377 150.666 52.0138 150.27 52.0138 149.813C52.0138 149.409 51.9605 149.055 51.8539 148.75C51.7473 148.438 51.5797 148.198 51.3512 148.031C51.1227 147.855 50.8218 147.768 50.4486 147.768C50.1973 147.768 49.9307 147.836 49.6489 147.974C49.3747 148.103 49.0967 148.312 48.8148 148.602V151.367C49.0814 151.603 49.348 151.77 49.6146 151.869C49.8888 151.968 50.1173 152.018 50.3001 152.018ZM57.2763 152.669V147.882H54.6942V147.117H58.2131V152.669H57.2763ZM57.6419 145.951C57.4286 145.951 57.2496 145.887 57.1049 145.757C56.9602 145.62 56.8878 145.441 56.8878 145.22C56.8878 144.999 56.9602 144.824 57.1049 144.695C57.2496 144.557 57.4286 144.489 57.6419 144.489C57.8551 144.489 58.0341 144.557 58.1788 144.695C58.3236 144.824 58.3959 144.999 58.3959 145.22C58.3959 145.441 58.3236 145.62 58.1788 145.757C58.0341 145.887 57.8551 145.951 57.6419 145.951Z" fill="white"/>
<rect x="132.815" y="182.513" width="31.8537" height="24.8537" stroke="#888888" stroke-width="0.571247"/>
<path d="M142.195 199.077C141.616 199.077 141.094 198.963 140.63 198.735C140.173 198.506 139.811 198.175 139.544 197.741C139.285 197.306 139.156 196.785 139.156 196.175C139.156 195.551 139.297 195.021 139.579 194.587C139.86 194.153 140.234 193.822 140.698 193.593C141.17 193.365 141.688 193.251 142.252 193.251C142.709 193.251 143.101 193.331 143.429 193.49C143.764 193.65 144.046 193.841 144.274 194.062L143.806 194.667C143.577 194.469 143.341 194.313 143.097 194.199C142.854 194.085 142.583 194.027 142.286 194.027C141.86 194.027 141.483 194.119 141.155 194.302C140.828 194.477 140.573 194.728 140.39 195.056C140.215 195.376 140.127 195.749 140.127 196.175C140.127 196.594 140.215 196.964 140.39 197.284C140.565 197.603 140.812 197.855 141.132 198.038C141.46 198.213 141.837 198.3 142.263 198.3C142.606 198.3 142.918 198.232 143.2 198.095C143.49 197.958 143.749 197.794 143.977 197.603L144.4 198.209C144.095 198.483 143.752 198.696 143.372 198.849C142.998 199.001 142.606 199.077 142.195 199.077ZM149.731 199.077C149.144 199.077 148.695 198.91 148.383 198.575C148.07 198.232 147.914 197.733 147.914 197.078V191.571H146.018V190.806H148.851V197.146C148.851 197.55 148.95 197.843 149.148 198.026C149.346 198.209 149.609 198.3 149.937 198.3C150.096 198.3 150.26 198.281 150.428 198.243C150.595 198.198 150.782 198.129 150.988 198.038L151.228 198.746C150.976 198.837 150.74 198.914 150.519 198.974C150.298 199.043 150.036 199.077 149.731 199.077ZM155.553 198.94V194.153H152.971V193.388H156.49V198.94H155.553ZM155.919 192.222C155.705 192.222 155.526 192.158 155.382 192.028C155.237 191.891 155.165 191.712 155.165 191.491C155.165 191.27 155.237 191.095 155.382 190.966C155.526 190.828 155.705 190.76 155.919 190.76C156.132 190.76 156.311 190.828 156.456 190.966C156.6 191.095 156.673 191.27 156.673 191.491C156.673 191.712 156.6 191.891 156.456 192.028C156.311 192.158 156.132 192.222 155.919 192.222Z" fill="white"/>
<path d="M76.6982 50.5659C76.2308 50.6402 75.9122 51.0793 75.9865 51.5467L77.1974 59.1628C77.2717 59.6302 77.7109 59.9488 78.1782 59.8745C78.6456 59.8002 78.9642 59.3611 78.8899 58.8937L77.8135 52.1238L84.5835 51.0474C85.0508 50.9731 85.3695 50.534 85.2951 50.0666C85.2208 49.5993 84.7817 49.2806 84.3144 49.3549L76.6982 50.5659ZM76.3295 52.1056L77.493 52.9499L78.4995 51.5629L77.336 50.7186L76.3295 52.1056ZM79.82 54.6384L82.147 56.327L83.1535 54.9399L80.8265 53.2514L79.82 54.6384ZM84.474 58.0155L86.801 59.7041L87.8074 58.317L85.4804 56.6285L84.474 58.0155ZM89.1279 61.3926L91.4549 63.0811L92.4614 61.6941L90.1344 60.0056L89.1279 61.3926ZM93.7819 64.7697L96.1089 66.4582L97.1154 65.0712L94.7884 63.3826L93.7819 64.7697ZM98.4359 68.1468L100.763 69.8353L101.769 68.4482L99.4424 66.7597L98.4359 68.1468ZM103.09 71.5238L105.417 73.2124L106.423 71.8253L104.096 70.1368L103.09 71.5238ZM107.744 74.9009L110.071 76.5895L111.077 75.2024L108.75 73.5139L107.744 74.9009ZM112.398 78.278L114.725 79.9665L115.731 78.5795L113.404 76.8909L112.398 78.278ZM117.052 81.6551L119.379 83.3436L120.385 81.9566L118.058 80.268L117.052 81.6551ZM121.706 85.0322L124.033 86.7207L125.039 85.3336L122.712 83.6451L121.706 85.0322ZM126.36 88.4092L128.687 90.0978L129.693 88.7107L127.366 87.0222L126.36 88.4092ZM131.014 91.7863L133.341 93.4749L134.347 92.0878L132.02 90.3993L131.014 91.7863ZM135.668 95.1634L137.995 96.8519L139.001 95.4649L136.674 93.7763L135.668 95.1634ZM140.322 98.5405L142.649 100.229L143.655 98.842L141.328 97.1534L140.322 98.5405ZM144.976 101.918L147.303 103.606L148.309 102.219L145.982 100.531L144.976 101.918ZM149.63 105.295L151.957 106.983L152.963 105.596L150.636 103.908L149.63 105.295ZM154.284 108.672L155.447 109.516L156.454 108.129L155.29 107.285L154.284 108.672Z" fill="#888888"/>
<path d="M66.0748 135.277C65.8574 135.698 66.0219 136.215 66.4422 136.432L73.292 139.975C73.7124 140.193 74.2294 140.028 74.4468 139.608C74.6642 139.187 74.4997 138.67 74.0794 138.453L67.9907 135.304L71.14 129.215C71.3574 128.795 71.1929 128.278 70.7726 128.06C70.3522 127.843 69.8352 128.007 69.6178 128.428L66.0748 135.277ZM67.0957 136.488L68.4703 136.05L67.9507 134.417L66.5761 134.855L67.0957 136.488ZM71.2194 135.175L73.9685 134.301L73.4489 132.668L70.6998 133.542L71.2194 135.175ZM76.7177 133.426L79.4668 132.551L78.9472 130.918L76.198 131.793L76.7177 133.426ZM82.2159 131.677L84.965 130.802L84.4454 129.169L81.6963 130.044L82.2159 131.677ZM87.7142 129.927L90.4633 129.052L89.9437 127.419L87.1946 128.294L87.7142 129.927ZM93.2124 128.178L95.9615 127.303L95.4419 125.67L92.6928 126.545L93.2124 128.178ZM98.7107 126.428L101.46 125.554L100.94 123.92L98.1911 124.795L98.7107 126.428ZM104.209 124.679L106.958 123.804L106.438 122.171L103.689 123.046L104.209 124.679ZM109.707 122.929L112.456 122.055L111.937 120.422L109.188 121.296L109.707 122.929ZM115.205 121.18L117.955 120.305L117.435 118.672L114.686 119.547L115.205 121.18ZM120.704 119.43L123.453 118.556L122.933 116.923L120.184 117.797L120.704 119.43ZM126.202 117.681L128.951 116.806L128.431 115.173L125.682 116.048L126.202 117.681ZM131.7 115.932L134.449 115.057L133.93 113.424L131.181 114.299L131.7 115.932ZM137.198 114.182L139.948 113.307L139.428 111.674L136.679 112.549L137.198 114.182ZM142.697 112.433L145.446 111.558L144.926 109.925L142.177 110.8L142.697 112.433ZM148.195 110.683L150.944 109.809L150.424 108.175L147.675 109.05L148.195 110.683ZM153.693 108.934L155.068 108.496L154.548 106.863L153.174 107.301L153.693 108.934Z" fill="#888888"/>
<path d="M147.009 181.349C147.313 181.712 147.853 181.761 148.216 181.457L154.137 176.516C154.501 176.213 154.549 175.673 154.246 175.309C153.943 174.946 153.403 174.897 153.039 175.201L147.776 179.593L143.384 174.33C143.081 173.966 142.54 173.918 142.177 174.221C141.814 174.524 141.765 175.064 142.068 175.428L147.009 181.349ZM148.521 180.877L148.647 179.476L146.94 179.322L146.814 180.723L148.521 180.877ZM148.9 176.675L149.152 173.873L147.446 173.719L147.193 176.521L148.9 176.675ZM149.405 171.072L149.658 168.271L147.951 168.117L147.698 170.918L149.405 171.072ZM149.91 165.469L150.163 162.668L148.456 162.514L148.204 165.315L149.91 165.469ZM150.416 159.867L150.668 157.065L148.962 156.911L148.709 159.713L150.416 159.867ZM150.921 154.264L151.174 151.463L149.467 151.309L149.214 154.11L150.921 154.264ZM151.426 148.662L151.679 145.86L149.972 145.706L149.72 148.508L151.426 148.662ZM151.932 143.059L152.184 140.258L150.478 140.104L150.225 142.905L151.932 143.059ZM152.437 137.456L152.69 134.655L150.983 134.501L150.73 137.302L152.437 137.456ZM152.942 131.854L153.195 129.052L151.488 128.898L151.236 131.7L152.942 131.854ZM153.448 126.251L153.7 123.45L151.994 123.296L151.741 126.097L153.448 126.251ZM153.953 120.648L154.206 117.847L152.499 117.693L152.246 120.494L153.953 120.648ZM154.458 115.046L154.711 112.245L153.004 112.091L152.752 114.892L154.458 115.046ZM154.964 109.443L155.09 108.043L153.383 107.889L153.257 109.289L154.964 109.443Z" fill="#888888"/>
<path d="M59.981 212.218L153.951 107.966" stroke="url(#paint0_linear_269_7)" stroke-width="0.571247" stroke-dasharray="2.86 2.86"/>
<path d="M151.952 107.966L282.482 201.936" stroke="url(#paint1_linear_269_7)" stroke-width="0.571247" stroke-dasharray="2.86 2.86"/>
<path d="M153.665 107.68L279.34 30.5618" stroke="url(#paint2_linear_269_7)" stroke-width="0.571247" stroke-dasharray="2.86 2.86"/>
<path d="M151.952 106.823L119.391 4.85547" stroke="url(#paint3_linear_269_7)" stroke-width="0.571247" stroke-dasharray="2.86 2.86"/>
<path d="M152.523 107.394L16.5662 79.9746" stroke="url(#paint4_linear_269_7)" stroke-width="0.571247" stroke-dasharray="2.86 2.86"/>
<path d="M238.634 93.022C238.899 92.63 238.796 92.0973 238.404 91.8322L232.016 87.5119C231.624 87.2468 231.092 87.3497 230.827 87.7417C230.561 88.1337 230.664 88.6664 231.056 88.9315L236.735 92.7718L232.894 98.4501C232.629 98.8421 232.732 99.3748 233.124 99.6399C233.516 99.905 234.049 99.8021 234.314 99.4101L238.634 93.022ZM155.256 109.378L156.637 109.112L156.312 107.429L154.931 107.696L155.256 109.378ZM159.398 108.578L162.159 108.045L161.834 106.363L159.073 106.896L159.398 108.578ZM164.92 107.512L167.681 106.979L167.356 105.296L164.595 105.83L164.92 107.512ZM170.442 106.446L173.203 105.913L172.878 104.23L170.117 104.763L170.442 106.446ZM175.964 105.38L178.725 104.846L178.4 103.164L175.639 103.697L175.964 105.38ZM181.486 104.313L184.247 103.78L183.922 102.097L181.161 102.631L181.486 104.313ZM187.008 103.247L189.769 102.714L189.444 101.031L186.683 101.564L187.008 103.247ZM192.53 102.181L195.291 101.647L194.966 99.9647L192.205 100.498L192.53 102.181ZM198.052 101.114L200.813 100.581L200.488 98.8984L197.727 99.4315L198.052 101.114ZM203.574 100.048L206.335 99.5147L206.01 97.8321L203.249 98.3652L203.574 100.048ZM209.096 98.9815L211.857 98.4484L211.532 96.7657L208.771 97.2989L209.096 98.9815ZM214.618 97.9152L217.379 97.3821L217.054 95.6994L214.293 96.2326L214.618 97.9152ZM220.14 96.8489L222.901 96.3157L222.576 94.6331L219.815 95.1662L220.14 96.8489ZM225.662 95.7826L228.423 95.2494L228.098 93.5667L225.337 94.0999L225.662 95.7826ZM231.184 94.7162L233.945 94.1831L233.62 92.5004L230.859 93.0336L231.184 94.7162ZM236.706 93.6499L238.087 93.3833L237.762 91.7007L236.381 91.9672L236.706 93.6499Z" fill="#888888"/>
<path d="M172.089 26.0906C171.828 25.6958 171.297 25.5872 170.902 25.8481L164.468 30.0998C164.073 30.3607 163.964 30.8923 164.225 31.2871C164.486 31.6819 165.018 31.7904 165.413 31.5295L171.132 27.7503L174.911 33.4693C175.172 33.8642 175.703 33.9727 176.098 33.7118C176.493 33.4509 176.602 32.9193 176.341 32.5245L172.089 26.0906ZM155.648 107.852L155.943 106.403L154.264 106.06L153.968 107.509L155.648 107.852ZM156.535 103.506L157.127 100.609L155.448 100.266L154.856 103.163L156.535 103.506ZM157.718 97.7119L158.31 94.8149L156.631 94.472L156.039 97.369L157.718 97.7119ZM158.902 91.9178L159.493 89.0208L157.814 88.6779L157.223 91.5749L158.902 91.9178ZM160.085 86.1237L160.677 83.2267L158.997 82.8838L158.406 85.7808L160.085 86.1237ZM161.268 80.3297L161.86 77.4326L160.181 77.0897L159.589 79.9868L161.268 80.3297ZM162.451 74.5356L163.043 71.6386L161.364 71.2956L160.772 74.1927L162.451 74.5356ZM163.635 68.7415L164.226 65.8445L162.547 65.5016L161.956 68.3986L163.635 68.7415ZM164.818 62.9474L165.41 60.0504L163.731 59.7075L163.139 62.6045L164.818 62.9474ZM166.001 57.1534L166.593 54.2563L164.914 53.9134L164.322 56.8104L166.001 57.1534ZM167.185 51.3593L167.776 48.4622L166.097 48.1193L165.506 51.0164L167.185 51.3593ZM168.368 45.5652L168.96 42.6682L167.281 42.3253L166.689 45.2223L168.368 45.5652ZM169.551 39.7711L170.143 36.8741L168.464 36.5312L167.872 39.4282L169.551 39.7711ZM170.735 33.977L171.326 31.08L169.647 30.7371L169.055 33.6341L170.735 33.977ZM171.918 28.1829L172.214 26.7344L170.535 26.3915L170.239 27.84L171.918 28.1829Z" fill="#888888"/>
<circle cx="153.665" cy="107.966" r="51.9835" fill="url(#paint5_radial_269_7)" style="mix-blend-mode:color-dodge"/>
<defs>
<linearGradient id="paint0_linear_269_7" x1="106.966" y1="107.966" x2="106.966" y2="212.218" gradientUnits="userSpaceOnUse">
<stop stop-color="#888888"/>
<stop offset="1" stop-color="#121212" stop-opacity="0"/>
</linearGradient>
<linearGradient id="paint1_linear_269_7" x1="282.482" y1="154.951" x2="151.952" y2="154.951" gradientUnits="userSpaceOnUse">
<stop stop-color="#121212" stop-opacity="0"/>
<stop offset="1" stop-color="#888888"/>
</linearGradient>
<linearGradient id="paint2_linear_269_7" x1="216.503" y1="30.5618" x2="216.503" y2="107.68" gradientUnits="userSpaceOnUse">
<stop stop-color="#121212" stop-opacity="0"/>
<stop offset="1" stop-color="#888888"/>
</linearGradient>
<linearGradient id="paint3_linear_269_7" x1="135.671" y1="4.85547" x2="135.671" y2="106.823" gradientUnits="userSpaceOnUse">
<stop stop-color="#121212" stop-opacity="0"/>
<stop offset="1" stop-color="#888888"/>
</linearGradient>
<linearGradient id="paint4_linear_269_7" x1="84.5446" y1="79.9746" x2="84.5446" y2="107.394" gradientUnits="userSpaceOnUse">
<stop stop-color="#121212" stop-opacity="0"/>
<stop offset="1" stop-color="#888888"/>
</linearGradient>
<radialGradient id="paint5_radial_269_7" cx="0" cy="0" r="1" gradientUnits="userSpaceOnUse" gradientTransform="translate(153.665 107.966) rotate(90) scale(51.9835)">
<stop stop-color="white" stop-opacity="0.88"/>
<stop offset="1" stop-color="#121212" stop-opacity="0"/>
</radialGradient>
</defs>
</svg>
